# xmcd
#
# Track frame offsets: 
#        150
#        10081
#        23133
#        35305
#        45367
#        55102
#        66828
#        79963
#        95045
#        114469
#        129752
#        143659
#        162431
#        182768
#        200813
#        213578
#        232569
#        249498
#        267594
#
# Disc length: 3610 seconds
#
# Revision: 0
# Processed by: cddbd v1.5.2PL0 Copyright (c) Steve Scherf et al.
# Submitted via: ExactAudioCopyFreeDBPlugin 1.0
#
DISCID=000e1813
DTITLE=Luther Ingram - Pity for the Lonely: The Ko Ko Singles Vol 1
DYEAR=2007
DGENRE=Soul
TTITLE0=You've Got To Give Love To Get Love 
TTITLE1=I Can't Stop (Version 1) 
TTITLE2=Missing You (Version 1) 
TTITLE3=Since You Don't Want Me (Version 1) 
TTITLE4=Oh Baby, You Can Depend On Me 
TTITLE5=Looking for a New Love 
TTITLE6=Pity For The Lonely 
TTITLE7=Puttin' Game Down 
TTITLE8=Since You Don't Want Me (Version 2) 
TTITLE9=My Honey and Me 
TTITLE10=I Can't Stop (Version 2) 
TTITLE11=Ain't That Lovin' You (For More Reasons Than One) 
TTITLE12=Home Don't Seem Like Home 
TTITLE13=To The Other Man 
TTITLE14=I'll Just Call You Honey 
TTITLE15=Be Good To Me Baby 
TTITLE16=I'll Love You Until The End 
TTITLE17=Ghetto Train 
TTITLE18=My Honey And Me (Radio Promo) 
EXTD=
EXTT0=
EXTT1=
EXTT2=
EXTT3=
EXTT4=
EXTT5=
EXTT6=
EXTT7=
EXTT8=
EXTT9=
EXTT10=
EXTT11=
EXTT12=
EXTT13=
EXTT14=
EXTT15=
EXTT16=
EXTT17=
EXTT18=
PLAYORDER=
